# xmcd
#
# Track frame offsets:
#	150
#	12569
#	23547
#	34593
#	43712
#	53221
#	63361
#	74556
#	84940
#	96573
#
# Disc length: 1467 seconds
#
# Revision: 1
# Processed by: cddbd v1.5.2PL0 Copyright (c) Steve Scherf et al.
# Submitted via: audiograbber 1.83.01
#
DISCID=8005b90a
DTITLE=Zoo, The - Presents Chocolate Moose
DYEAR=1900
DGENRE=Rock
TTITLE0=Chocolate Moose
TTITLE1=Written On The Wind
TTITLE2=I've Been Waiting Too Long
TTITLE3=Soul Drippin's
TTITLE4=Get Some Beads
TTITLE5=Ain't Nobody
TTITLE6=Have You Been Sleepin'
TTITLE7=Try Me
TTITLE8=Love Machine
TTITLE9=From A Camels Hump
EXTD=
EXTT0=
EXTT1=
EXTT2=
EXTT3=
EXTT4=
EXTT5=
EXTT6=
EXTT7=
EXTT8=
EXTT9=
PLAYORDER=
